<svg xmlns="http://www.w3.org/2000/svg" xml:space="preserve" width="1061.965" height="200" viewBox="0 0 1061.9649 200"><path d="M324.056 762.32h34.229v34.229h-34.229z" style="fill:#0091d1;fill-opacity:1;fill-rule:nonzero;stroke:none" transform="matrix(5.843 0 0 -5.843 -1893.457 4654.235)"/><path d="m324.056 796.549 8.555-8.561 8.559 8.56z" style="fill:#0091d1;fill-opacity:1;fill-rule:nonzero;stroke:none" transform="matrix(5.843 0 0 -5.843 -1893.457 4654.235)"/><path d="M324.056 796.549v-17.113l8.555 8.552z" style="fill:#009ad8;fill-opacity:1;fill-rule:nonzero;stroke:none" transform="matrix(5.843 0 0 -5.843 -1893.457 4654.235)"/><path d="m341.17 779.436-8.554 8.559-8.56-8.56z" style="fill:#0091d1;fill-opacity:1;fill-rule:nonzero;stroke:none" transform="matrix(5.843 0 0 -5.843 -1893.457 4654.235)"/><path d="M341.17 779.436v17.113l-8.554-8.554z" style="fill:#0082c9;fill-opacity:1;fill-rule:nonzero;stroke:none" transform="matrix(5.843 0 0 -5.843 -1893.457 4654.235)"/><path d="M341.17 796.549v-17.113l8.555 8.552z" style="fill:#0070bb;fill-opacity:1;fill-rule:nonzero;stroke:none" transform="matrix(5.843 0 0 -5.843 -1893.457 4654.235)"/><path d="m358.285 779.436-8.555 8.559-8.559-8.56z" style="fill:#004c98;fill-opacity:1;fill-rule:nonzero;stroke:none" transform="matrix(5.843 0 0 -5.843 -1893.457 4654.235)"/><path d="m324.056 779.436 8.555-8.561 8.559 8.56z" style="fill:#0082c9;fill-opacity:1;fill-rule:nonzero;stroke:none" transform="matrix(5.843 0 0 -5.843 -1893.457 4654.235)"/><path d="M324.056 779.436V762.32l8.555 8.554z" style="fill:#0070bb;fill-opacity:1;fill-rule:nonzero;stroke:none" transform="matrix(5.843 0 0 -5.843 -1893.457 4654.235)"/><path d="m341.17 762.32-8.554 8.561-8.56-8.56z" style="fill:#0066b3;fill-opacity:1;fill-rule:nonzero;stroke:none" transform="matrix(5.843 0 0 -5.843 -1893.457 4654.235)"/><path d="M341.17 762.32v17.113l-8.554-8.552z" style="fill:#00529c;fill-opacity:1;fill-rule:nonzero;stroke:none" transform="matrix(5.843 0 0 -5.843 -1893.457 4654.235)"/><path d="m341.17 779.436 8.555-8.561 8.559 8.56z" style="fill:#1a3282;fill-opacity:1;fill-rule:nonzero;stroke:none" transform="matrix(5.843 0 0 -5.843 -1893.457 4654.235)"/><path d="M341.17 779.436V762.32l8.555 8.554z" style="fill:#004c98;fill-opacity:1;fill-rule:nonzero;stroke:none" transform="matrix(5.843 0 0 -5.843 -1893.457 4654.235)"/><path d="m358.285 762.32-8.555 8.561-8.559-8.56z" style="fill:#1a3282;fill-opacity:1;fill-rule:nonzero;stroke:none" transform="matrix(5.843 0 0 -5.843 -1893.457 4654.235)"/><path d="M358.285 762.32v17.113l-8.555-8.552z" style="fill:#1a3282;fill-opacity:1;fill-rule:nonzero;stroke:none" transform="matrix(5.843 0 0 -5.843 -1893.457 4654.235)"/><path d="m341.17 796.549 8.555-8.561 8.559 8.56z" style="fill:#0066b3;fill-opacity:1;fill-rule:nonzero;stroke:none" transform="matrix(5.843 0 0 -5.843 -1893.457 4654.235)"/><path d="M358.285 779.436v17.113l-8.555-8.554z" style="fill:#00529c;fill-opacity:1;fill-rule:nonzero;stroke:none" transform="matrix(5.843 0 0 -5.843 -1893.457 4654.235)"/><path d="m358.284 775.152-10.958 10.44-16.63-16.674 6.067-6.067 10.563 10.405 10.958-10.899z" style="fill:#fff;fill-opacity:1;fill-rule:nonzero;stroke:none" transform="matrix(5.843 0 0 -5.843 -1893.457 4654.235)"/><path d="M505.806 794.928H500.887v-7.451h-2.37l.002 7.45H493.6l-.001-17.296h4.918v6.818h2.369v-8.39h4.917zm-30.747-5.387h17.08v3.012h-6.067l.003 3.285h-4.92v-3.285h-7.267l1.09-3.012zm-34.814-13.217h31.85V779.338h-32.94zm24.347 12.047c-.006 3.715-3.842 6.676-8.535 6.684-4.694-.008-8.53-2.97-8.536-6.684.006-3.714 3.842-6.675 8.536-6.681 4.693.006 8.529 2.967 8.535 6.68m-4.467 0c-.004-1.883-1.807-3.438-4.068-3.438-2.262 0-4.066 1.555-4.07 3.439.004 1.885 1.808 3.44 4.07 3.442 2.26-.002 4.064-1.557 4.068-3.442m-37.83-14.914H436.2v3.244h-32.774l1.084-3.244h12.816V763.4h4.968zm9.8 6.227 1.238 2.494-.137.033c-.005.002-2.24.529-4.733 1.863-2.46 1.315-5.152 3.407-6.203 6.52h9.594v2.99h-24.08l1.084-2.99h8.557c-1.05-3.113-3.743-5.205-6.202-6.52-2.495-1.334-4.73-1.86-4.733-1.863l-.138-.033 1.237-2.494.076.006c6.719.449 11.215 5.36 12.183 6.508.967-1.147 5.464-6.06 12.184-6.508zm-30.773 5.668s.534.535 0 1.068l-2.395 2.395s-.533.533-1.066 0l-2.05-2.05v7.65h-4.883c-.003.003 0-17.653 0-17.653h4.882v8.246l2.05-2.051s.534-.533 1.067 0zm-33.53-7.633h21.51v2.988h-11.257v5.662h-4.883v-5.662h-6.453zm13.93 4.559h4.883v11.44l-17.441-.003 1.083-2.99h11.476zm-4.466-12.961c.006-3.848 3.982-6.92 8.85-6.928 4.869.008 8.846 3.08 8.85 6.928-.004 3.85-3.981 6.922-8.85 6.929-4.868-.007-8.844-3.078-8.85-6.93m4.623 0c.004 1.962 1.879 3.577 4.228 3.577 2.347 0 4.222-1.615 4.227-3.576-.005-1.96-1.88-3.573-4.227-3.575-2.35.002-4.224 1.616-4.228 3.575m62.713 5.039v-7.84a3.017 3.017 0 0 1 2.882-2.84l20.917-.002v3.006H449.78c-.12.004-.162.062-.206.164a.708.708 0 0 0-.041.219l-.004 7.293zm31.1 8.133c.007-3.33 3.443-5.977 7.642-5.983 4.2.006 7.636 2.654 7.642 5.983-.006 3.33-3.441 5.98-7.642 5.986-4.2-.006-7.635-2.656-7.641-5.986m4.015 0c.005 1.677 1.61 3.064 3.626 3.064 2.017 0 3.622-1.387 3.625-3.064-.003-1.676-1.608-3.061-3.625-3.063-2.015.002-3.621 1.387-3.626 3.063m6.569-13.182c.006-3.881 4.014-6.981 8.925-6.986 4.909.005 8.918 3.105 8.925 6.986-.007 3.883-4.016 6.978-8.925 6.988-4.911-.01-8.92-3.105-8.925-6.988m4.66 0c.006 1.976 1.895 3.603 4.265 3.605 2.368-.002 4.259-1.63 4.264-3.605-.005-1.975-1.896-3.604-4.264-3.606-2.37.002-4.26 1.63-4.264 3.606" style="fill:#002d6a;fill-opacity:1;fill-rule:nonzero;stroke:none" transform="matrix(5.843 0 0 -5.843 -1893.457 4654.235)"/><path d="M380.651 525.704h68.458v68.459h-68.458z" style="fill:#0091d1;fill-opacity:1;fill-rule:nonzero;stroke:none" transform="matrix(4.29514 0 0 -4.29514 -1219.722 3008.615)"/><path d="m380.651 594.161 17.107-17.12 17.122 17.12z" style="fill:#0091d1;fill-opacity:1;fill-rule:nonzero;stroke:none" transform="matrix(4.29514 0 0 -4.29514 -1219.722 3008.615)"/><path d="M380.651 594.161v-34.229l17.107 17.108z" style="fill:#009ad8;fill-opacity:1;fill-rule:nonzero;stroke:none" transform="matrix(4.29514 0 0 -4.29514 -1219.722 3008.615)"/><path d="m414.88 559.933-17.108 17.12-17.121-17.12z" style="fill:#0091d1;fill-opacity:1;fill-rule:nonzero;stroke:none" transform="matrix(4.29514 0 0 -4.29514 -1219.722 3008.615)"/><path d="M414.88 559.933v34.229l-17.108-17.108z" style="fill:#0082c9;fill-opacity:1;fill-rule:nonzero;stroke:none" transform="matrix(4.29514 0 0 -4.29514 -1219.722 3008.615)"/><path d="M414.88 594.161v-34.229l17.106 17.108z" style="fill:#0070bb;fill-opacity:1;fill-rule:nonzero;stroke:none" transform="matrix(4.29514 0 0 -4.29514 -1219.722 3008.615)"/><path d="M449.108 559.933 432 577.053l-17.12-17.12z" style="fill:#004c98;fill-opacity:1;fill-rule:nonzero;stroke:none" transform="matrix(4.29514 0 0 -4.29514 -1219.722 3008.615)"/><path d="m380.651 559.933 17.107-17.121 17.122 17.12z" style="fill:#0082c9;fill-opacity:1;fill-rule:nonzero;stroke:none" transform="matrix(4.29514 0 0 -4.29514 -1219.722 3008.615)"/><path d="M380.651 559.933v-34.23l17.107 17.109z" style="fill:#0070bb;fill-opacity:1;fill-rule:nonzero;stroke:none" transform="matrix(4.29514 0 0 -4.29514 -1219.722 3008.615)"/><path d="m414.88 525.704-17.108 17.121-17.121-17.12z" style="fill:#0066b3;fill-opacity:1;fill-rule:nonzero;stroke:none" transform="matrix(4.29514 0 0 -4.29514 -1219.722 3008.615)"/><path d="M414.88 525.704v34.23l-17.108-17.109z" style="fill:#00529c;fill-opacity:1;fill-rule:nonzero;stroke:none" transform="matrix(4.29514 0 0 -4.29514 -1219.722 3008.615)"/><path d="m414.88 559.933 17.107-17.121 17.122 17.12z" style="fill:#1a3282;fill-opacity:1;fill-rule:nonzero;stroke:none" transform="matrix(4.29514 0 0 -4.29514 -1219.722 3008.615)"/><path d="M414.88 559.933v-34.23l17.107 17.109z" style="fill:#004c98;fill-opacity:1;fill-rule:nonzero;stroke:none" transform="matrix(4.29514 0 0 -4.29514 -1219.722 3008.615)"/><path d="M449.108 525.704 432 542.825l-17.12-17.12z" style="fill:#1a3282;fill-opacity:1;fill-rule:nonzero;stroke:none" transform="matrix(4.29514 0 0 -4.29514 -1219.722 3008.615)"/><path d="M449.108 525.704v34.23L432 542.824z" style="fill:#1a3282;fill-opacity:1;fill-rule:nonzero;stroke:none" transform="matrix(4.29514 0 0 -4.29514 -1219.722 3008.615)"/><path d="m414.88 594.161 17.107-17.12 17.122 17.12z" style="fill:#0066b3;fill-opacity:1;fill-rule:nonzero;stroke:none" transform="matrix(4.29514 0 0 -4.29514 -1219.722 3008.615)"/><path d="M449.108 559.933v34.229L432 577.054z" style="fill:#00529c;fill-opacity:1;fill-rule:nonzero;stroke:none" transform="matrix(4.29514 0 0 -4.29514 -1219.722 3008.615)"/><path d="m449.108 551.37-21.916 20.877-33.262-33.346 12.134-12.133 21.128 20.807 21.916-21.797z" style="fill:#fff;fill-opacity:1;fill-rule:nonzero;stroke:none" transform="matrix(4.29514 0 0 -4.29514 -1219.722 3008.615)"/><path d="M462.595 510.61h-.9" style="fill:none;stroke:#7a7c7f;stroke-width:.2;stroke-linecap:butt;stroke-linejoin:miter;stroke-miterlimit:4;stroke-dasharray:none;stroke-opacity:1" transform="matrix(4.29514 0 0 -4.29514 -1219.722 3008.615)"/><path d="M484.478 510.36H479.56v-7.45h-2.369l.001 7.45h-4.918v-17.297h4.917v6.818h2.37v-8.39h4.917zm-30.747-5.387h17.081v3.012h-6.068l.003 3.285h-4.92v-3.285h-7.267l1.091-3.012zm-34.814-13.215h31.85v3.012h-32.94zm24.347 12.045c-.006 3.715-3.84 6.676-8.535 6.684-4.694-.008-8.53-2.969-8.536-6.684.006-3.713 3.842-6.675 8.536-6.68 4.694.005 8.53 2.967 8.535 6.68m-4.466 0c-.005-1.884-1.808-3.439-4.069-3.439-2.26 0-4.066 1.555-4.07 3.44.004 1.884 1.81 3.441 4.07 3.441 2.261 0 4.064-1.557 4.07-3.442m-37.832-14.914h13.906v3.246H382.1l1.084-3.246H396v-10.057h4.968zm9.802 6.23 1.237 2.493-.138.031c-.005.002-2.238.53-4.733 1.863-2.459 1.317-5.152 3.407-6.202 6.52h9.593v2.99h-24.08l1.084-2.99h8.558c-1.05-3.113-3.743-5.203-6.202-6.52-2.495-1.334-4.73-1.859-4.733-1.863l-.138-.03 1.237-2.495.076.004c6.719.45 11.215 5.361 12.183 6.508.967-1.147 5.464-6.059 12.184-6.508zm-30.775 5.667s.534.533 0 1.066l-2.395 2.395s-.533.535-1.066 0l-2.05-2.049.001 7.65H369.6c-.003.002 0-17.652 0-17.652h4.882l.001 8.244 2.05-2.05s.533-.534 1.066 0zm-33.528-7.635h21.508v2.988h-11.257v5.664h-4.883v-5.664h-6.452zm13.93 4.56h4.881v11.44l-17.44-.004 1.082-2.988h11.476zm-4.468-12.96c.006-3.85 3.982-6.923 8.851-6.929 4.868.006 8.845 3.078 8.851 6.928-.006 3.85-3.983 6.922-8.85 6.928-4.87-.006-8.846-3.078-8.852-6.928m4.623 0c.004 1.96 1.88 3.575 4.228 3.577 2.347-.002 4.222-1.617 4.228-3.577-.006-1.959-1.88-3.575-4.228-3.575-2.349 0-4.224 1.616-4.228 3.575m62.713 5.038.001-7.839a3.019 3.019 0 0 1 2.882-2.842l20.916-.002v3.008h-18.611c-.119.002-.162.062-.206.162a.75.75 0 0 0-.04.22v.001l-.005 7.292zm31.101 8.134c.006-3.328 3.442-5.978 7.642-5.984 4.2.006 7.635 2.656 7.641 5.984-.006 3.33-3.44 5.98-7.64 5.987-4.2-.008-7.637-2.658-7.643-5.987m4.015 0c.005 1.676 1.611 3.063 3.627 3.063s3.621-1.387 3.625-3.063c-.004-1.675-1.609-3.062-3.625-3.064-2.016.002-3.622 1.39-3.627 3.064m6.57-13.182c.005-3.883 4.014-6.98 8.924-6.988 4.91.007 8.918 3.105 8.925 6.988-.007 3.882-4.016 6.98-8.925 6.987-4.91-.008-8.919-3.105-8.925-6.987m4.661 0c.005 1.975 1.895 3.604 4.264 3.604 2.368 0 4.26-1.629 4.264-3.604-.005-1.977-1.896-3.606-4.264-3.606-2.369 0-4.259 1.63-4.264 3.606" style="fill:#002d6a;fill-opacity:1;fill-rule:nonzero;stroke:none" transform="matrix(4.29514 0 0 -4.29514 -1219.722 3008.615)"/></svg>