<svg xmlns="http://www.w3.org/2000/svg" viewBox="0 0 367.55 60.67"><path d="M263.87 25.26h-14.24V13.55h14.24ZM269 9.06h-24.52v20.72H269ZM220.61 26.21v6.48h15.18v16.93h-5.19V37.16h-30.46v-4.47h15.3v-6.48h-18.47v-4.47h33.39v-8.95h-29.65V8.34h34.84v13.37h3.71v4.5h-18.65zM281.71 49.45h-32.56V34.23h5.18v10.74h27.38v4.48zM276.16 8.06h5.15v27.21h-5.15zM285.92 29.74h42.26v4.47h-42.26z" style="fill:#7c7366"/><path d="M290.5 32.68v16.77h33.81v-4.47h-28.66v-12.3h-5.15zM354.48 28.87h5.03v-8.59h2.87v8.59h5.03V8.06h-5.03v7.9h-2.87v-7.9h-5.03v20.81zM337.87 6.25v3.84h-9.21v4.38h23.51v-4.38h-9.14V6.25h-5.16zM353.16 46.56c-5 0-9-1.87-9-6.07s4.05-6.07 9-6.07 9 1.9 9 6.07-4.05 6.07-9 6.07m0-16.81c-8 0-14.4 3.53-14.4 10.74s6.44 10.74 14.4 10.74 14.39-3.59 14.39-10.74-6.45-10.74-14.39-10.74M307.05 23.13c-5.34 0-9.67-1.91-9.67-6.2s4.33-6.19 9.67-6.19 9.68 1.94 9.68 6.19-4.34 6.2-9.68 6.2m0-17.11c-8.34 0-15.11 3.6-15.11 10.92s6.77 10.92 15.11 10.92 15.12-3.66 15.12-10.92S315.4 6 307.05 6" style="fill:#7c7366"/><path d="M340.42 24.15c-3.16 0-5.71-1.33-5.71-4.34s2.55-4.35 5.71-4.35 5.7 1.36 5.7 4.35-2.56 4.34-5.7 4.34m0-12.9c-6.1 0-11 2.91-11 8.81s4.93 8.82 11 8.82 11-3 11-8.82-4.94-8.81-11-8.81M104.45 8.4h6.58v18.45L133.17 8.4h9.32l-23.41 18.61 25.35 22.6h-9.31l-24.09-22.08v22.08h-6.58V8.4zM149 8.49h20.26c9.63 0 14.67 3.2 14.67 10.2 0 5-3.47 8.4-8.09 9.32v.17c6.62.79 9.76 5.14 9.76 10 0 6.15-4.51 11.47-15.7 11.47H149Zm6.57 17.35h13.36c5 0 8.64-1.88 8.64-6.28 0-3.82-1.81-6.38-9.39-6.38h-12.6Zm0 19.18h12.95c8.05 0 10.18-3.14 10.18-7.14 0-4.73-3.27-7.35-10.52-7.35h-12.6Z" style="fill:#7c7366"/><path d="m83.8 31.13-.74-.46c-2.52-2.51-6-3.6-10.69-3.33A20.1 20.1 0 0 0 63 30.56v-.11c0-1.22.14-2.54.27-3.82a37.29 37.29 0 0 0 .28-3.89A9.15 9.15 0 0 0 63 19.2a.68.68 0 0 0-.67-.42A10 10 0 0 0 58 20.19l-.32.71a29.15 29.15 0 0 1-.63 5.75l-.17.47a70.11 70.11 0 0 0 0 14.63c0 .42.86 1 1.48 1.28s2.82-.32 4-.79l.47-.07a.7.7 0 0 0 .6-.81v-1.21c.89-3.62 4.5-7.93 8.76-8.59a6.08 6.08 0 0 1 5.82 1.88c.2.29.64 2.9-1 5.89a12.18 12.18 0 0 1-6.66 5.25A25.64 25.64 0 0 1 60.25 46l-3.74-2.53c-3.17-2.23-7.11-5-10.69-6.36a12.67 12.67 0 0 1-2.43-1.73l-.37-.3c-2.06-1.66-6-4.27-9.13-6.37l-1.7-1.14v-.35c.09-.1 2.06-1.29 2.06-1.29 2.78-1.62 4.06-2.42 4.33-2.83-.05.07.37-.22.37-.22L45.83 19c6.59-3.63 14.06-7.74 18-11.8l.17-.61.09-.59a3.81 3.81 0 0 0 .06-2.31.75.75 0 0 0-.53-.53c-3.06-.3-7 1.54-10.61 4.91a9.86 9.86 0 0 1-2.22 1.53l-.55.3c-4 2.26-12.9 7.8-17.57 10.8a154.59 154.59 0 0 1 2.38-18.11l-.13-.71-.48-.88-.37-.67L34 .3a3 3 0 0 0-2.29-.14l-.94.35-1.24.49a.7.7 0 0 0-.53.4c-2.23 5.4-4.09 14.28-4.53 21.38a110.56 110.56 0 0 0-10.61-5.87h-.06l-.25-.05a7.7 7.7 0 0 1-2.47-1.15L9.4 14.58l-2.6-1.66-.68-.15a8.14 8.14 0 0 0-3.89 2.6.78.78 0 0 0-.11.42 2.61 2.61 0 0 0 .11.61l.12.53.12.32a37.48 37.48 0 0 0 7.46 5.06l3.56 1.88 5.46 3 .93.73.65.37.11.08L10.71 35l-5.22 3.44a29.35 29.35 0 0 1-3 1.45 4.28 4.28 0 0 0-2.35 1.94l-.14.3.14.2.4.3.53.35.58.39.54.09c.92 0 2.28-.49 4.82-1.6 2.33-1 8.68-4.86 11.38-6.49l1.16-.7A2.53 2.53 0 0 0 21 34a14.22 14.22 0 0 1 2.45-1.48l.81-.45v.32a112.08 112.08 0 0 0 1.51 19v.08l.08.19a20.6 20.6 0 0 1 1.41 4.35l1 3.46.29.33a6.85 6.85 0 0 0 3.59.94h.3l.19-.42a8.26 8.26 0 0 0 .13-1.59c0-.63 0-1.33-.1-2.18l-.08-1.25c-.38-5.79-.76-14.15-.76-19.71V35l5.29 3.33c7.32 4.75 18.38 11.93 25.06 13.82a1 1 0 0 0 1-.22l1-.66.19-.08a1.88 1.88 0 0 0 .69-1.53c5.63-.28 13.49-2.45 17.69-7.74a11 11 0 0 0 2.36-6.7 5.74 5.74 0 0 0-1.37-4.12" style="fill:#f8b500"/></svg>