<svg xmlns="http://www.w3.org/2000/svg" width="2533pt" height="367pt" viewBox="0 0 2533 367"><path d="m230.352 0-72.399 36.324L85.672 0l72.281 137.535Zm0 0" style="stroke:none;fill-rule:nonzero;fill:#fabe00;fill-opacity:1"/><path d="m255.621 106.387-1.059-.59 51.598-21.629V11.051l-89.676 38.203-49.714 94.043c39.683 4.668 68.847 39.473 66.507 79.367-2.336 39.899-35.367 71.055-75.324 71.055s-72.988-31.156-75.324-71.055c-2.34-39.894 26.824-74.7 66.508-79.367L99.539 49.254 9.512 11.05v72.648l52.066 22.098-1.176 1.058C13.707 147.562-2.836 212.977 18.895 270.996c21.73 58.016 77.175 96.461 139.117 96.461 61.945 0 117.386-38.445 139.117-96.46 21.73-58.02 5.187-123.435-41.508-164.142Zm0 0" style="stroke:none;fill-rule:nonzero;fill:#fabe00;fill-opacity:1"/><path d="M2168.547 220.883h-313.809l-13.281-21.043h327.09c3.406 0 4.113 4.23 4.113 10.578 0 6.348-.59 10.465-4.113 10.465Zm-157.727-49.02c-81.332 0-143.035-20.691-143.035-63.949 0-43.262 61.703-63.95 143.035-63.95s143.035 20.688 143.035 63.95c0 43.258-61.703 63.95-143.035 63.95Zm146.442 158.11H1890c-12.465 0-22.566-10.106-22.566-22.57V239.69h37.609c6.492 0 11.754 5.262 11.754 11.754v47.02c-.008 6.27 4.902 11.445 11.164 11.758h229.3c3.294 0 4.114 4.113 4.114 10.578 0 6.465-1.055 9.172-4.113 9.172ZM2010.82 65.008c-53.476 0-92.613 13.164-92.613 42.906 0 29.742 39.137 42.906 92.613 42.906 53.477 0 92.614-13.164 92.614-42.906 0-29.742-39.137-42.906-92.614-42.906ZM2507.621 245.098h-57.59a36.101 36.101 0 0 1 20.805 32.562c0 31.856-37.848 45.61-89.324 45.61-51.48 0-89.325-13.754-89.325-45.61 0-31.855 37.844-46.082 89.325-46.082h139.156V55.25c0-6.492-5.262-11.754-11.754-11.754h-35.258v60.656h-26.328V55.25c0-6.492-5.262-11.754-11.754-11.754h-35.258v154.816h47.012v-71.59h26.328v85.93h-92.144c-81.098 0-141.977 22.22-141.977 65.594 0 43.379 60.88 65.598 141.977 65.598 81.093 0 141.976-22.219 141.976-65.598a43.143 43.143 0 0 0-15.867-33.148Zm0 0" style="stroke:none;fill-rule:nonzero;fill:#005bac;fill-opacity:1"/><path d="M2381.746 131.777a58.064 58.064 0 0 0-11.754-34.445h-47.012a48.57 48.57 0 0 1 11.754 34.094c0 22.449-9.875 46.312-37.609 46.312-23.508 0-38.2-22.332-38.2-46.312 0-23.985 13.872-47.727 37.845-47.727h91.09c2.82 0 3.406-5.41 3.406-11.05 0-5.645 0-9.876-3.407-9.876h-66.996V44.906a9.753 9.753 0 0 0-9.281-9.992h-40.902v27.86h-73.223l11.05 20.925h27.735a58.773 58.773 0 0 0-23.504 48.078c0 37.145 33.262 66.887 84.032 66.887 50.773 0 84.976-29.742 84.976-66.887ZM1368.516 224.645a45.14 45.14 0 0 1 22.683 39.613c0 38.207-41.137 55.722-92.027 55.722s-92.024-17.515-92.024-55.722c0-38.203 40.547-55.602 92.024-55.602h152.793a4.236 4.236 0 0 0 3.996-4.23 45.12 45.12 0 0 0 0-12.934 4.119 4.119 0 0 0-3.996-3.644H1323.03V148h122.235a4.119 4.119 0 0 0 3.996-4.117 45.91 45.91 0 0 0 0-13.047 4.121 4.121 0 0 0-4.117-3.527h-231.77c-6.488 0-11.75-5.262-11.75-11.754V59.363c0-6.492-5.266-11.754-11.754-11.754h-36.434v78.641c.32 12.098 10.352 21.66 22.446 21.395h98.96v40.44h-141.976l13.75 20.806h42.196a62.537 62.537 0 0 0-29.618 53.254c0 54.425 62.645 79.23 139.977 79.23 77.336 0 139.98-24.805 139.98-79.23a58.791 58.791 0 0 0-11.754-37.149ZM1634.137 97.453a53.94 53.94 0 0 1 6.578 9.402 50.085 50.085 0 0 1 6.703 25.04c0 27.722-22.473 50.195-50.188 50.195-27.714 0-50.183-22.473-50.183-50.195-.395-27.59 21.547-50.32 49.125-50.903h108.012a4.113 4.113 0 0 0 3.996-4.113c.683-4.442.683-8.961 0-13.399a4.113 4.113 0 0 0-4.114-3.644h-82.273V48.078c0-6.492-5.262-11.754-11.75-11.754h-37.375v23.512h-94.027c1.882 2.82 13.398 20.453 13.988 21.156h35.258a63.846 63.846 0 0 0-29.383 50.903c0 39.496 39.844 71.472 98.726 71.472 39.61 0 68.637-14.46 85.563-36.09h68.402v77.586h-181.468v-21.511c0-6.493-5.262-11.758-11.75-11.758h-37.258v96.511a22.57 22.57 0 0 0 23.504 21.868h257.629V54.309c0-6.493-5.262-11.754-11.754-11.754h-37.493v54.898Zm117.527 211.594h-175.238a6.474 6.474 0 0 1-4.723-1.809 6.48 6.48 0 0 1-1.976-4.656v-36.559h181.468Zm0-162.695h-57.941a52.112 52.112 0 0 0 2-14.223 55.391 55.391 0 0 0-1.649-13.164h57.121ZM1065.055 49.844h-43.371v111.91H843.977V49.844h-42.899c-11.183 1.054-19.453 10.894-18.566 22.097v236.637c-.82 11.18 7.414 20.98 18.566 22.098h42.899V210.418h177.707v120.258h43.37c11.2-1.059 19.505-10.875 18.684-22.098V71.941a20.446 20.446 0 0 0-18.683-22.097ZM710.23 49.844h-43.37v215.12L536.52 93.103c-21.625-25.04-36.555-43.258-71.223-43.258h-44.43v258.613c-.816 11.227 7.488 21.043 18.688 22.102h43.605V114.613l131.164 170.688c22.094 25.625 41.84 45.375 73.926 45.375h40.547V72.059c.953-11.246-7.332-21.16-18.567-22.215Zm0 0" style="stroke:none;fill-rule:nonzero;fill:#005bac;fill-opacity:1"/></svg>