<?xml version="1.0" encoding="UTF-8" standalone="no"?>
<!-- Created with Inkscape (http://www.inkscape.org/) -->

<svg
   version="1.1"
   id="svg9"
   xml:space="preserve"
   width="110.65262"
   height="30.236124"
   viewBox="0 0 110.65262 30.236124"
   xmlns="http://www.w3.org/2000/svg"
   xmlns:svg="http://www.w3.org/2000/svg"><defs
     id="defs13"><clipPath
       clipPathUnits="userSpaceOnUse"
       id="clipPath27"><path
         d="M 0,595.275 H 841.89 V 0 H 0 Z"
         id="path25" /></clipPath></defs><g
     id="g15"
     transform="matrix(1.3333333,0,0,-1.3333333,-66.666576,536.66305)"><g
       id="g21"><g
         id="g23"
         clip-path="url(#clipPath27)"><g
           id="g571"
           transform="translate(88.5811,396.8955)"><path
             d="M 0,0 H -2.4 V -14.956 H 0 v 9.563 h 2.225 v 1.338 H 0 Z"
             style="fill:#231f20;fill-opacity:1;fill-rule:nonzero;stroke:none"
             id="path573" /></g><g
           id="g575"
           transform="translate(81.6436,397.2539)"><path
             d="m 0,0 h -2.397 v -1.397 h -3.268 v -1.34 h 2.235 c -1.208,-0.889 -2.015,-2.472 -2.015,-4.284 0,-2.785 1.9,-5.042 4.247,-5.042 2.344,0 4.249,2.257 4.249,5.042 0,1.812 -0.808,3.395 -2.017,4.284 h 2.242 v 1.34 H 0 Z m -1.18,-10.724 c -1.031,-0.003 -1.873,1.652 -1.876,3.696 -0.003,2.043 0.832,3.698 1.867,3.702 1.034,10e-4 1.875,-1.654 1.876,-3.695 0,-2.041 -0.831,-3.703 -1.867,-3.703"
             style="fill:#231f20;fill-opacity:1;fill-rule:nonzero;stroke:none"
             id="path577" /></g><g
           id="g579"
           transform="translate(105.5567,392.8409)"><path
             d="m 0,0 h -2.222 v 4.055 h -2.4 V -4.99 c -0.395,-0.388 -1.003,-0.798 -1.832,-0.784 h -3.815 c -0.567,0 -1.021,0.454 -1.021,1.011 l 0.004,8.14 h -2.382 l 0.01,-8.14 c 0,-1.302 1.067,-2.36 2.384,-2.36 l 4.13,-10e-4 c 0,0 1.458,-0.072 2.522,0.9 v -4.677 h 2.4 v 9.565 H 0 Z"
             style="fill:#231f20;fill-opacity:1;fill-rule:nonzero;stroke:none"
             id="path581" /></g><g
           id="g583"
           transform="translate(116.419,392.9102)"><path
             d="m 0,0 c 0,2.393 -1.902,4.333 -4.246,4.333 -2.347,0 -4.248,-1.94 -4.248,-4.333 0,-1.498 0.746,-2.818 1.881,-3.596 h -4.403 v -1.398 h 1.839 L -9.17,-8.59 c 0,-1.306 1.067,-2.363 2.385,-2.363 l 8.088,-0.004 v 1.352 h -7.085 c -0.559,0 -1.017,0.453 -1.017,1.015 l 0.004,3.596 h 9.208 v 1.398 H -1.881 C -0.748,-2.818 0,-1.498 0,0 m -4.18,2.981 c 1.038,0.005 1.883,-1.325 1.891,-2.977 0.012,-1.648 -0.818,-2.992 -1.852,-2.998 -1.033,-0.006 -1.88,1.327 -1.888,2.975 -0.014,1.651 0.819,2.996 1.849,3"
             style="fill:#231f20;fill-opacity:1;fill-rule:nonzero;stroke:none"
             id="path585" /></g><g
           id="g587"
           transform="translate(126.2803,391.4942)"><path
             d="m 0,0 c 0,1.234 -0.538,2.332 -1.37,3.022 h 1.503 v 1.34 H -2.236 V 5.76 H -4.635 V 4.362 h -2.386 v -1.34 h 1.513 C -6.341,2.332 -6.878,1.234 -6.878,0 c 0,-2.098 1.539,-3.794 3.437,-3.794 C -1.537,-3.794 0,-2.098 0,0 m -3.428,-2.445 c -0.588,-0.006 -1.07,1.086 -1.08,2.435 -0.01,1.351 0.459,2.446 1.049,2.448 0.588,0.006 1.074,-1.086 1.084,-2.435 0.004,-1.349 -0.467,-2.444 -1.053,-2.448"
             style="fill:#231f20;fill-opacity:1;fill-rule:nonzero;stroke:none"
             id="path589" /></g><g
           id="g591"
           transform="translate(132.9834,385.9121)"><path
             d="M 0,0 V 10.972 H -2.267 V 7.985 L -3.362,7.99 v 2.993 H -5.645 V 3.963 C -7.301,3.37 -8.488,1.768 -8.488,-0.123 c 0,-2.394 1.899,-4.33 4.249,-4.33 2.343,0 4.245,1.936 4.245,4.33 C 0.006,-0.082 0,-0.041 0,0 M -2.267,6.649 V 3.711 c -0.34,0.183 -0.708,0.322 -1.095,0.403 v 2.539 z m -1.93,-9.711 c -1.037,-0.003 -1.877,1.332 -1.881,2.979 -0.006,1.651 0.828,2.992 1.859,2.994 1.033,0.005 1.879,-1.33 1.883,-2.981 0.004,-1.65 -0.83,-2.992 -1.861,-2.992"
             style="fill:#231f20;fill-opacity:1;fill-rule:nonzero;stroke:none"
             id="path593" /></g><g
           id="g595"
           transform="translate(66.3243,389.0586)"><path
             d="M 0,0 C -0.059,0.346 -0.152,0.681 -0.291,0.991 -0.729,1.937 -1.338,2.73 -2.254,3.264 -3.675,4.094 -5.394,4.088 -6.801,3.235 -7.437,2.851 -7.961,2.297 -8.299,1.632 -8.413,1.406 -8.506,1.17 -8.582,0.929 c -0.371,-1.178 -0.357,-2.763 0.311,-3.838 0.218,-0.352 0.533,-0.651 0.918,-0.801 0.386,-0.148 0.843,-0.133 1.19,0.093 0.448,0.288 0.527,0.841 0.444,1.331 -0.105,0.625 -0.185,1.242 0.044,1.855 0.075,0.196 0.179,0.384 0.329,0.53 0.092,0.087 0.2,0.16 0.315,0.214 0.242,0.119 0.519,0.172 0.785,0.128 0.467,-0.076 0.847,-0.436 1.055,-0.861 0.206,-0.423 0.262,-0.903 0.285,-1.374 0.097,-2.053 -0.393,-4.18 -0.916,-6.151 -0.054,-0.204 -0.11,-0.406 -0.167,-0.608 -0.046,-0.156 -0.124,-0.354 -0.026,-0.507 0.043,-0.064 0.111,-0.11 0.183,-0.139 0.305,-0.123 0.553,0.063 0.757,0.269 1.204,1.211 1.975,2.773 2.503,4.379 0.197,0.599 0.366,1.211 0.48,1.832 C 0.063,-1.868 0.152,-0.896 0,0"
             style="fill:#009591;fill-opacity:1;fill-rule:nonzero;stroke:none"
             id="path597" /></g><g
           id="g599"
           transform="translate(74.9415,398.5479)"><path
             d="M 0,0 C 0,0.308 -0.272,0.511 -0.566,0.502 -0.863,0.49 -1.139,0.339 -1.412,0.233 c -5.295,-2.012 -11.266,-2.393 -16.846,-1.59 -0.955,0.138 -1.922,0.33 -2.882,0.48 -0.599,0.094 -1.194,0.23 -1.799,0.275 -0.516,0.04 -1.16,0.058 -1.577,-0.3 -0.55,-0.476 -0.511,-1.377 -0.199,-1.973 0.375,-0.714 1.031,-1.249 1.714,-1.657 0.663,-0.395 1.455,-0.817 2.246,-0.767 2.132,0.136 4.259,0.342 6.379,0.617 3.614,0.47 7.404,0.913 10.799,2.315 1.11,0.459 2.205,1.03 3.156,1.769 C -0.248,-0.467 0,-0.25 0,0"
             style="fill:#009591;fill-opacity:1;fill-rule:nonzero;stroke:none"
             id="path601" /></g><g
           id="g603"
           transform="translate(59.7559,400.3623)"><path
             d="m 0,0 c 0,-1.15 0.934,-2.082 2.084,-2.082 1.149,0 2.082,0.932 2.082,2.082 0,0.171 -0.039,0.343 -0.113,0.498 C 3.875,0.877 3.674,1.062 3.695,1.514 3.721,2.127 2.937,2.135 2.514,2.135 2.054,2.135 1.564,2.071 1.149,1.862 0.818,1.694 0.533,1.438 0.332,1.126 0.124,0.807 0.01,0.429 0.001,0.048 0,0.031 0,0.016 0,0"
             style="fill:#ed1651;fill-opacity:1;fill-rule:nonzero;stroke:none"
             id="path605" /></g></g></g></g></svg>
