<svg xmlns="http://www.w3.org/2000/svg" xmlns:xlink="http://www.w3.org/1999/xlink" xml:space="preserve" width="741.083px" height="296.487px" x="0px" y="0px" viewBox="0 0 741.083 296.487"><defs><path id="a" d="M262.894 31.017h457.647v235.827H262.894z"/></defs><clipPath id="b"><use xlink:href="#a" overflow="visible"/></clipPath><path fill="#525455" d="M291.955 174.557c6.495 0 12.55-1.761 17.281-5.833v9.136c-5.282 3.633-11.558 5.176-18.162 5.176-16.622 0-28.181-11.561-28.181-28.184 0-16.514 11.888-28.073 28.4-28.073 6.495 0 12.55 1.872 17.395 5.504v10.02c-4.294-4.624-10.238-7.047-16.844-7.047-11.559 0-19.707 8.038-19.707 19.596 0 11.559 8.259 19.705 19.818 19.705M328.062 182.042h-8.917v-71.476l8.917 5.512v20.939c4.073-6.274 10.568-10.239 18.824-10.239 13.652 0 20.917 10.02 20.917 23.34v31.924h-9.026V151.66c0-10.571-4.624-16.183-14.092-16.183-10.017 0-16.623 8.586-16.623 19.375v27.19zM423.176 172.797c-4.514 6.384-11.448 10.238-19.925 10.238-15.854 0-27.19-11.78-27.19-27.852 0-16.404 11.337-28.403 27.19-28.403 8.477 0 15.411 3.964 19.925 10.459v-9.468h9.028v54.272h-9.028v-9.246zm-37.868-17.725c0 11.229 7.814 19.485 18.826 19.485 11.118 0 19.042-8.256 19.042-19.485 0-11.448-7.924-19.815-19.042-19.815-11.012 0-18.826 8.367-18.826 19.815M454.991 182.042h-8.918V127.77h8.918v11.559c4.291-8.038 11.229-12.551 19.813-12.551v10.239c-10.785-1.54-19.813 5.725-19.813 19.155v25.87zM566.178 158.374h-42.825c1.32 9.797 9.028 16.292 19.814 16.292 6.938 0 13.651-1.979 19.378-6.055v8.588c-5.836 3.962-12.439 5.834-19.378 5.834-17.063 0-29.28-11.008-29.28-27.631 0-16.294 10.348-28.622 26.75-28.622 15.632 0 25.87 11.559 25.87 27.08 0 1.543-.111 3.082-.329 4.514m-42.715-7.265h33.578c-.884-9.247-6.717-16.072-16.293-16.072-9.909 0-15.853 6.935-17.285 16.072M585.221 182.042h-8.918V127.77h8.918v11.559c4.291-8.038 11.229-12.551 19.813-12.551v10.239c-10.785-1.54-19.813 5.725-19.813 19.155v25.87zM657.988 158.374h-42.826c1.322 9.797 9.029 16.292 19.816 16.292 6.936 0 13.65-1.979 19.377-6.055v8.588c-5.836 3.962-12.441 5.834-19.377 5.834-17.064 0-29.281-11.008-29.281-27.631 0-16.294 10.346-28.622 26.75-28.622 15.631 0 25.869 11.559 25.869 27.08 0 1.543-.109 3.082-.328 4.514m-42.715-7.265h33.578c-.883-9.247-6.717-16.072-16.293-16.072-9.91 0-15.853 6.935-17.285 16.072M711.516 172.722c-4.402 6.495-11.449 10.46-19.926 10.46-15.854 0-27.191-11.78-27.191-27.852 0-16.404 11.338-28.403 27.191-28.403 8.477 0 15.523 4.072 19.926 10.678v-27.023l9.027 5.512v65.945h-9.027v-9.317zm-37.87-17.503c0 11.229 7.816 19.485 18.826 19.485 11.119 0 19.043-8.256 19.043-19.485 0-11.448-7.924-19.815-19.043-19.815-11.009 0-18.826 8.367-18.826 19.815M490.388 164.002c0 7.597 4.624 10.568 10.46 10.568 4.402 0 8.805-1.21 12.658-3.963v8.697c-3.743 2.752-8.918 3.854-13.43 3.854-11.56 0-18.605-5.175-18.605-19.818v-52.785l8.917 5.512v47.935z" clip-path="url(#b)"/><path fill="#525455" d="M504.801 127.062a6.886 6.886 0 0 0-7.486-.064c-4.254 2.703-4.259 8.909-.011 11.618l.191.121a6.886 6.886 0 0 0 7.419-.01l8.869-5.688-8.982-5.977zM281.497 96.293c6.384 0 11.008-2.752 11.008-7.705 0-2.973-1.539-5.285-5.615-6.938l-12.879-5.172c-6.606-2.863-10.239-6.606-10.239-13.652 0-9.466 7.598-15.412 18.605-15.412 6.385 0 12.329 1.763 16.512 4.955v9.355c-4.953-4.402-11.008-6.932-16.401-6.932-5.725 0-9.798 2.641-9.798 7.043 0 3.303 1.539 5.285 5.833 6.936l12.883 5.174c6.932 2.973 10.127 7.157 10.127 12.99 0 10.349-8.367 16.733-20.147 16.733-7.157 0-13.652-1.981-18.383-5.503v-9.688c5.723 5.395 12.11 7.816 18.494 7.816M318.486 84.515c0 7.597 4.624 10.568 10.457 10.568 4.405 0 8.807-1.21 12.661-3.962v8.696c-3.743 2.752-8.918 3.854-13.431 3.854-11.559 0-18.605-5.175-18.605-19.818V36.535l8.918-5.518v53.498zM391.472 93.433c-4.513 6.384-11.448 10.238-19.926 10.238-15.854 0-27.19-11.78-27.19-27.852 0-16.404 11.337-28.403 27.19-28.403 8.478 0 15.413 3.961 19.926 10.459v-9.468h9.028v54.273h-9.028v-9.247zm-37.869-17.725c0 11.229 7.816 19.485 18.826 19.485 11.119 0 19.043-8.256 19.043-19.485 0-11.448-7.924-19.815-19.043-19.815-11.011 0-18.826 8.366-18.826 19.815M423.286 102.678h-8.917V48.406h8.917v9.247c4.073-6.274 10.568-10.239 18.824-10.239 13.651 0 20.917 10.02 20.917 23.34v31.924h-9.026V72.296c0-10.571-4.623-16.183-14.092-16.183-10.017 0-16.623 8.586-16.623 19.375v27.19zM518.4 93.21c-4.402 6.496-11.448 10.46-19.926 10.46-15.853 0-27.19-11.78-27.19-27.852 0-16.404 11.338-28.403 27.19-28.403 8.478 0 15.523 4.072 19.926 10.678V36.532l9.027-5.51v71.658H518.4v-9.47zm-37.869-17.502c0 11.229 7.814 19.485 18.826 19.485 11.119 0 19.043-8.256 19.043-19.485 0-11.448-7.924-19.815-19.043-19.815-11.011 0-18.826 8.366-18.826 19.815M683.531 93.21c-4.402 6.496-11.449 10.46-19.926 10.46-15.854 0-27.191-11.78-27.191-27.852 0-16.404 11.338-28.403 27.191-28.403 8.477 0 15.523 4.072 19.926 10.678V36.532l9.027-5.51v71.658h-9.027v-9.47zm-37.869-17.502c0 11.229 7.816 19.485 18.826 19.485 11.119 0 19.043-8.256 19.043-19.485 0-11.448-7.924-19.815-19.043-19.815-11.009 0-18.826 8.366-18.826 19.815M584.231 93.433c-4.513 6.384-11.448 10.238-19.925 10.238-15.854 0-27.19-11.78-27.19-27.852 0-16.404 11.337-28.403 27.19-28.403 8.477 0 15.412 3.961 19.925 10.459v-9.468h9.028v54.273h-9.028v-9.247zm-37.868-17.725c0 11.229 7.814 19.485 18.826 19.485 11.118 0 19.042-8.256 19.042-19.485 0-11.448-7.924-19.815-19.042-19.815-11.011 0-18.826 8.366-18.826 19.815M616.047 102.678h-8.918V48.406h8.918v11.558c4.293-8.034 11.229-12.55 19.814-12.55v10.239c-10.787-1.54-19.814 5.725-19.814 19.155v25.87z" clip-path="url(#b)"/><path fill="#525455" d="M331.057 59.972a6.893 6.893 0 0 0 7.486.049c4.248-2.715 4.238-8.921-.019-11.619l-.189-.121a6.879 6.879 0 0 0-7.418.027l-8.856 5.709 8.996 5.955zM291.324 236.331l-12.893-5.18c-4.3-1.653-5.842-3.636-5.842-6.941 0-4.41 4.078-7.054 9.809-7.054 5.399 0 11.459 2.536 16.418 6.943v-9.369c-4.186-3.194-10.139-4.958-16.529-4.958-11.019 0-18.624 5.952-18.624 15.429 0 7.052 3.638 10.8 10.249 13.663l12.893 5.18c4.079 1.653 5.621 3.968 5.621 6.943 0 4.959-4.629 7.713-11.019 7.713-6.393 0-12.785-2.425-18.516-7.823v9.698c4.74 3.527 11.24 5.509 18.405 5.509 11.791 0 20.166-6.393 20.166-16.749 0-5.842-3.198-10.029-10.138-13.004M316.968 237.873c0-11.569 8.153-19.614 19.726-19.614 6.611 0 12.564 2.425 16.86 7.051v-10.027c-4.848-3.635-10.911-5.51-17.411-5.51-16.531 0-28.43 11.57-28.43 28.101 0 16.64 11.569 28.212 28.208 28.212 6.614 0 12.894-1.542 18.184-5.18v-9.147c-4.737 4.078-10.8 5.842-17.301 5.842-11.572-.002-19.836-8.158-19.836-19.728M508.695 249.677h-7.929v16.515h44.407v-6.708h-36.478zM495.151 239.516h53.995v6.668h-53.995zM603.045 209.81v13.644h-6.352V209.81h-7.041v32.991h7.041v-13.144h6.352v14.538h6.838V209.81zM585.498 212.798h-10.271v-5.04h-7.794v5.04h-10.271v5.633h28.336zM439.524 234.224c3.446 2.665 7.422 4.019 11.813 4.019 4.439 0 8.426-1.364 11.851-4.057 3.448-2.709 5.196-6.282 5.196-10.619s-1.748-7.899-5.196-10.587c-3.425-2.668-7.414-4.021-11.851-4.021-4.438 0-8.424 1.354-11.849 4.021-3.448 2.688-5.198 6.25-5.198 10.587.001 4.383 1.762 7.97 5.234 10.657m4.932-16.62c1.996-1.626 4.311-2.45 6.882-2.45s4.888.811 6.884 2.409c1.975 1.583 2.977 3.549 2.977 5.842 0 2.299-1.005 4.311-2.982 5.974-1.995 1.681-4.31 2.531-6.878 2.531s-4.883-.851-6.879-2.531c-1.977-1.663-2.979-3.673-2.979-5.974-.001-2.24.998-4.195 2.975-5.801M506.107 231.832c3.91 2.401 9.307 3.616 16.039 3.616 6.692 0 12.091-1.239 16.045-3.687 4.002-2.474 6.033-5.706 6.033-9.605 0-3.806-2.031-6.992-6.033-9.469-3.957-2.444-9.353-3.687-16.045-3.687-6.732 0-12.132 1.264-16.045 3.757-3.96 2.522-5.966 5.685-5.966 9.398.001 3.992 2.01 7.249 5.972 9.677m5.723-14.516c2.85-1.367 6.322-2.061 10.322-2.061 4.094 0 7.566.707 10.318 2.096 2.669 1.35 4.024 2.989 4.024 4.88 0 1.788-1.277 3.392-3.794 4.764-2.59 1.413-6.139 2.131-10.549 2.131-4.408 0-7.981-.731-10.617-2.171-2.559-1.396-3.858-3.014-3.858-4.805.001-1.885 1.396-3.511 4.154-4.834M571.492 243.653c4.132 0 7.557-1.078 10.173-3.201 2.639-2.141 3.976-4.966 3.976-8.391 0-3.479-1.318-6.278-3.916-8.318-2.573-2.017-5.995-3.041-10.171-3.041-4.045 0-7.424 1.021-10.04 3.039-2.643 2.039-3.981 4.785-3.981 8.164 0 3.476 1.348 6.338 4.005 8.507 2.638 2.152 5.986 3.241 9.954 3.241m-5.539-15.556c1.531-1.051 3.419-1.583 5.611-1.583 2.347 0 4.259.529 5.68 1.574 1.401 1.032 2.082 2.323 2.082 3.938 0 1.629-.661 2.971-2.02 4.103-1.361 1.137-3.295 1.713-5.742 1.713-2.241 0-4.138-.578-5.639-1.724-1.485-1.132-2.209-2.468-2.209-4.092.001-1.612.732-2.898 2.237-3.929M602.631 248.371c-3.994-1.971-9.932-2.973-17.653-2.973-7.671 0-13.641.958-17.749 2.844-4.186 1.926-6.309 4.502-6.309 7.659 0 3.151 2.096 5.804 6.233 7.875 4.062 2.036 10.012 3.07 17.687 3.07 7.719 0 13.682-1.002 17.721-2.974 4.113-2.009 6.201-4.606 6.201-7.718 0-3.154-2.063-5.771-6.131-7.783m-6.848 11.332c-2.721.976-6.374 1.47-10.859 1.47-4.683 0-8.461-.494-11.229-1.47-2.642-.932-3.983-2.195-3.983-3.754 0-1.599 1.337-2.835 3.976-3.678 2.768-.882 6.524-1.326 11.163-1.326 4.59 0 8.283.444 10.979 1.326 2.566.84 3.867 2.101 3.867 3.751-.002 1.51-1.318 2.749-3.914 3.681M475.903 214.399v22.693h7.791v-27.279h-.063zM437.74 247.578h39.206v3.945H437.74v14.689h45.891v-5.56h-39.269v-3.925h39.269v-15.115H437.74zM386.801 232.956V218.3h9.114v-6.914h-25.972v6.914h8.999v14.656c-.235 16.663-12.173 29.132-12.288 29.237l-.168.151 5.583 4.502.121-.132c4.788-5.115 8.41-11.687 10.765-19.531H383.007c2.355 7.845 5.977 14.416 10.765 19.531l.122.132 5.585-4.502-.17-.151c-.118-.106-12.278-12.574-12.508-29.237M415.986 266.203h7.452v-51.955l-7.452-4.422z" clip-path="url(#b)"/><path fill="#525455" d="M402.821 230.504h-8.031v7.47h8.031l.046 28.228h7.451v-51.908l-7.448-4.42z" clip-path="url(#b)"/><path fill="#38D200" d="M154.652 281.747 39.364 206.688s-14.462-8.312-17.769-23.795c-4.651-21.749 10.679-40.388 10.679-40.388l149.627 97.447c11.539 7.522 14.691 22.91 7.272 34.518-7.622 11.928-23.284 14.555-34.521 7.277"/><path fill="#0473EA" d="M45.448 126.422s-17.659-10.664-17.659-35.327c0-24.58 17.653-35.11 17.653-35.11l63.027-41.25c11.554-7.512 27.003-4.233 34.512 7.317 7.511 11.551 4.234 27.004-7.321 34.513L82.54 91.154l90.511 58.949s16.292 9.336 19.501 25.09c4.481 21.982-10.649 40.095-10.649 40.095L45.448 126.422z"/><path fill="#38D200" d="M164.083 65.31c-5.917 0-10.133 1.866-14.241 4.541L119.078 89.89l30.765 20.038c4.15 2.675 8.503 4.544 14.241 4.544 13.575 0 24.58-11.008 24.58-24.582 0-13.573-11.006-24.583-24.581-24.58"/><path fill="#0473EA" d="M45.122 285.723c5.917 0 10.132-1.866 14.24-4.541l30.769-20.039-30.769-20.038c-4.15-2.672-8.502-4.544-14.24-4.544-13.575 0-24.58 11.007-24.58 24.582 0 13.572 11.005 24.583 24.58 24.58"/></svg>